<svg width="50" height="50" viewBox="0 0 50 50" fill="none" xmlns="http://www.w3.org/2000/svg">
<g id="Group 58299">
<g id="Group" filter="url(#filter0_d_1_206)">
<path id="Ellipse 1525" d="M25 41C35.4934 41 44 32.4934 44 22C44 11.5066 35.4934 2.99997 25 2.99997C14.5066 2.99997 6 11.5066 6 22C6 32.4934 14.5066 41 25 41Z" fill="white"/>
</g>
<path id="add (1)" d="M34.9748 12.6584C33.0648 10.7481 30.6312 9.44711 27.9818 8.91994C25.3324 8.39276 22.5862 8.66308 20.0904 9.6967C17.5946 10.7303 15.4614 12.4808 13.9605 14.7268C12.4597 16.9728 11.6585 19.6135 11.6584 22.3148C11.6583 25.0162 12.4593 27.6569 13.96 29.903C15.4607 32.1491 17.5938 33.8998 20.0895 34.9336C22.5852 35.9674 25.3314 36.2379 27.9808 35.7109C30.6303 35.1839 33.0639 33.8831 34.9741 31.973C37.5353 29.4117 38.9743 25.938 38.9744 22.3158C38.9745 18.6937 37.5358 15.2198 34.9748 12.6584ZM17.2695 30.3636C15.6779 28.772 14.5939 26.7441 14.1548 24.5364C13.7157 22.3287 13.941 20.0403 14.8024 17.9607C15.6638 15.8811 17.1226 14.1036 18.9942 12.8531C20.8658 11.6025 23.0662 10.935 25.3171 10.935C27.5681 10.935 29.7685 11.6025 31.6401 12.8531C33.5117 14.1036 34.9704 15.8811 35.8318 17.9607C36.6932 20.0403 36.9186 22.3287 36.4794 24.5364C36.0403 26.7441 34.9564 28.772 33.3647 30.3636C32.3079 31.4204 31.0532 32.2588 29.6724 32.8307C28.2916 33.4027 26.8117 33.697 25.3171 33.697C23.8225 33.697 22.3426 33.4027 20.9618 32.8307C19.581 32.2588 18.3264 31.4204 17.2695 30.3636ZM29.3413 26.3402C29.2357 26.4465 29.1101 26.531 28.9718 26.5887C28.8335 26.6463 28.6851 26.6761 28.5352 26.6763C28.3854 26.6765 28.237 26.6471 28.0985 26.5898C27.96 26.5325 27.8342 26.4484 27.7284 26.3423L25.3171 23.9311L22.9059 26.3423C22.6925 26.5557 22.403 26.6756 22.1012 26.6756C21.7994 26.6756 21.5099 26.5557 21.2965 26.3423C21.0831 26.1289 20.9632 25.8394 20.9632 25.5376C20.9632 25.2358 21.0831 24.9463 21.2965 24.7329L23.7077 22.3217L21.2901 19.9041C21.0767 19.6907 20.9568 19.4012 20.9568 19.0994C20.9568 18.7976 21.0767 18.5081 21.2901 18.2947C21.5036 18.0813 21.793 17.9614 22.0948 17.9614C22.3966 17.9614 22.6861 18.0813 22.8995 18.2947L25.3136 20.7088L27.7312 18.2912C27.9446 18.0778 28.2341 17.9579 28.5359 17.9579C28.8377 17.9579 29.1271 18.0778 29.3406 18.2912C29.554 18.5046 29.6739 18.7941 29.6739 19.0959C29.6739 19.3977 29.554 19.6871 29.3406 19.9006L26.9265 22.3146L29.3413 24.7294C29.447 24.8351 29.5309 24.9607 29.588 25.0988C29.6452 25.237 29.6746 25.3851 29.6746 25.5346C29.6745 25.6841 29.645 25.8322 29.5877 25.9703C29.5303 26.1084 29.4464 26.2338 29.3406 26.3395L29.3413 26.3402Z" fill="#DE1B1B"/>
</g>
<defs>
<filter id="filter0_d_1_206" x="0" y="-3.05176e-05" width="50" height="50" filterUnits="userSpaceOnUse" color-interpolation-filters="sRGB">
<feFlood flood-opacity="0" result="BackgroundImageFix"/>
<feColorMatrix in="SourceAlpha" type="matrix" values="0 0 0 0 0 0 0 0 0 0 0 0 0 0 0 0 0 0 127 0" result="hardAlpha"/>
<feOffset dy="3"/>
<feGaussianBlur stdDeviation="3"/>
<feColorMatrix type="matrix" values="0 0 0 0 0 0 0 0 0 0 0 0 0 0 0 0 0 0 0.161 0"/>
<feBlend mode="normal" in2="BackgroundImageFix" result="effect1_dropShadow_1_206"/>
<feBlend mode="normal" in="SourceGraphic" in2="effect1_dropShadow_1_206" result="shape"/>
</filter>
</defs>
</svg>
