<svg width="24" height="21" viewBox="0 0 24 21" fill="none" xmlns="http://www.w3.org/2000/svg">
<g id="ar-camera">
<path id="Path 3468" d="M21.891 3.75H17.826L17.3 1.13C17.2356 0.812125 17.0636 0.526169 16.8129 0.320332C16.5623 0.114495 16.2483 0.00136209 15.924 0H8.076C7.75167 0.00136209 7.43772 0.114495 7.18707 0.320332C6.93643 0.526169 6.7644 0.812125 6.7 1.13L6.176 3.75H2.109C1.5499 3.75079 1.01393 3.97325 0.618588 4.36859C0.223246 4.76393 0.000793611 5.2999 0 5.859L0 18.047C0.000793611 18.6061 0.223246 19.1421 0.618588 19.5374C1.01393 19.9328 1.5499 20.1552 2.109 20.156H21.891C22.4501 20.1552 22.9861 19.9328 23.3814 19.5374C23.7768 19.1421 23.9992 18.6061 24 18.047V5.859C23.9992 5.2999 23.7768 4.76393 23.3814 4.36859C22.9861 3.97325 22.4501 3.75079 21.891 3.75ZM8.076 1.406H15.923L16.392 3.75H7.608L8.076 1.406ZM22.594 18.047C22.594 18.1389 22.5759 18.2299 22.5407 18.3149C22.5055 18.3998 22.454 18.477 22.389 18.542C22.324 18.607 22.2468 18.6585 22.1619 18.6937C22.077 18.7289 21.9859 18.747 21.894 18.747H2.109C1.92335 18.747 1.7453 18.6732 1.61403 18.542C1.48275 18.4107 1.409 18.2327 1.409 18.047V5.859C1.409 5.67335 1.48275 5.4953 1.61403 5.36403C1.7453 5.23275 1.92335 5.159 2.109 5.159H21.891C22.0767 5.159 22.2547 5.23275 22.386 5.36403C22.5173 5.4953 22.591 5.67335 22.591 5.859L22.594 18.047Z" fill="#FFB801"/>
<path id="Path 3469" d="M11.997 6.75C10.9685 6.75 9.96317 7.05497 9.10804 7.62636C8.2529 8.19774 7.5864 9.00988 7.19283 9.96005C6.79925 10.9102 6.69627 11.9558 6.89691 12.9645C7.09756 13.9732 7.59281 14.8997 8.32004 15.627C9.04727 16.3542 9.97383 16.8494 10.9825 17.0501C11.9912 17.2507 13.0368 17.1478 13.987 16.7542C14.9371 16.3606 15.7493 15.6941 16.3206 14.839C16.892 13.9838 17.197 12.9785 17.197 11.95C17.1946 10.5716 16.646 9.25035 15.6713 8.27568C14.6967 7.30101 13.3754 6.75238 11.997 6.75ZM11.997 15.75C11.2454 15.75 10.5107 15.5271 9.88584 15.1096C9.26093 14.692 8.77387 14.0985 8.48626 13.4042C8.19864 12.7098 8.1234 11.9458 8.27002 11.2087C8.41665 10.4715 8.77856 9.79444 9.31 9.263C9.84144 8.73156 10.5185 8.36965 11.2557 8.22302C11.9928 8.0764 12.7568 8.15164 13.4512 8.43925C14.1455 8.72687 14.739 9.21393 15.1566 9.83884C15.5741 10.4637 15.797 11.1984 15.797 11.95C15.797 12.449 15.6987 12.9432 15.5077 13.4042C15.3168 13.8652 15.0369 14.2841 14.684 14.637C14.3311 14.9899 13.9122 15.2698 13.4512 15.4607C12.9902 15.6517 12.496 15.75 11.997 15.75Z" fill="#FFB801"/>
<path id="Path 3470" d="M5.99897 6.75H3.74596C3.55952 6.75 3.38071 6.82406 3.24887 6.9559C3.11703 7.08774 3.04297 7.26656 3.04297 7.453C3.04297 7.63945 3.11703 7.81825 3.24887 7.95009C3.38071 8.08193 3.55952 8.15601 3.74596 8.15601H5.99596C6.18241 8.15601 6.36123 8.08193 6.49306 7.95009C6.6249 7.81825 6.69897 7.63945 6.69897 7.453C6.69897 7.26656 6.6249 7.08774 6.49306 6.9559C6.36123 6.82406 6.18241 6.75 5.99596 6.75H5.99897Z" fill="#FFB801"/>
</g>
</svg>
